<svg xmlns="http://www.w3.org/2000/svg" viewBox="0 0 218.25 198.72">
	<defs>
		<style>.cls-1{fill:#fff;}</style>
	</defs>
	<g id="Слой_2" data-name="Слой 2">
		<g id="Слой_1-2" data-name="Слой 1">
			<path class="cls-1"
			      d="M193.88,40c-2.26-.44-4.68-.38-7-.63a11.31,11.31,0,0,1-7.63-4.15,11.45,11.45,0,0,1-1.76-2.82l1.73.18a112.89,112.89,0,0,0,13,1,29.57,29.57,0,0,1,.44-5.18,25.85,25.85,0,0,1,1-3.77,20.6,20.6,0,0,0,1.42-5.53l.12-.28c1,2,1.23,4.4,2.29,6.54,2,5.18,3.11,11.05,0,15.95A11.47,11.47,0,0,0,193.88,40ZM189,31.18c4.24-9.86-.94-17.71-4.4-26.63l-.1.35c-1.63,5.87-2.57,11.68-1.57,17.81L179,21.61l-3.62-1.1L170,18.94c0,3.08,2.42,6.38,4.65,8.48a4.68,4.68,0,0,0,.82.53,13.88,13.88,0,0,0,3.61,1.57c3.11.85,6.66,1.07,9.83,1.66ZM179,19.54c.56.19,1.13.41,1.69.66a20.1,20.1,0,0,0-1.78-7.85,27.49,27.49,0,0,0-3.46-6.06c-.1-.1-.15-.13-.22-.19-3-2.42-5.4-4.86-8.95-5.8A14,14,0,0,0,164.58,0c.63,1.45,1.22,3.08,1.78,4.74a41.63,41.63,0,0,0,3.46,8.07,12.22,12.22,0,0,0,5.56,5.09A27.73,27.73,0,0,0,179,19.54Zm27.73,36.9c2-2.73,2.82-7.23,2.44-11a48.45,48.45,0,0,0-2.67-8.63c-.66-1.58-1.25-3.08-1.82-4.62l-.22.26c-.57,4.3-3.59,8.51-2.83,13.06-1.91-.26-4.74-1.23-7.73-2a24.27,24.27,0,0,0-5.62-.88A13.47,13.47,0,0,0,194,50.9a1.75,1.75,0,0,0,.47.31c3.62,2.45,8.45,2.89,11.15,6.44a10.57,10.57,0,0,0,1.13-1.22Zm6,48.52c3.74-3.8,5.37-9.67,5.46-14.63l-10.42,11.27c-.19-.25-.38-.53-.6-.84-2.85-3.87-6.81-7.6-8.95-12.5h-.18c-2.27,9.23,3,16.87,7.19,23.61a20.73,20.73,0,0,0,2.07-1.6c1.91-1.73,3.23-3.58,5.43-5.31Zm5-30c-.41-.69-.16-1-.41-1.54-2.42,3.92-6.56,6.22-8.83,10.68a22,22,0,0,0-1.5-3c-2.14-3.45-5.31-6.69-7.85-9.82a.81.81,0,0,0-.25-.64l-.06.19c-.88,9.64,3.46,18.06,8.32,24.84a10,10,0,0,0,.92,1.32c6.06-5.88,10.43-12.85,9.67-22Zm-2.89-11.21c-.56-3.55-.94-6.66-1.66-9.86l-5.59,10-.81-1c-3.14-3.36-7.76-5.5-12.78-7.32a.83.83,0,0,1-.23-.06c.1.31.16.63.26.94,1.63,5.72,5,9.2,9.36,13.59a28.22,28.22,0,0,1,3.51,4.05,14.69,14.69,0,0,1,1.7,3.52c4.08-3.24,6.91-7.85,6.25-13.82ZM51.63,2.83c.25-.28.47-.56.69-.79l-.44-.18a1.31,1.31,0,0,0-.25.1A23.15,23.15,0,0,0,42,7.16a20.65,20.65,0,0,0-4.27,5.43,26.36,26.36,0,0,0-1.45,10.08c2-.13,3.92-1.61,5.84-3.33.66-.66,1.32-1.35,2-2,1.26-1.73,1.92-3.77,3-5.5,1.33-3.42,2.42-6.44,4.56-9ZM11.05,69,4.46,58.48l-.41-.1-.19.1C1.1,67.27,5.12,76.34,9.67,82.63a23.86,23.86,0,0,1,2.07-3c4.17-5.09,10.2-9,11.68-15.58a11.48,11.48,0,0,0,.31-2.36,1.18,1.18,0,0,0-.35,0c-1.7.28-4.3,1.89-6.18,2.83a54.89,54.89,0,0,0-5.59,4c-.18.15-.38.28-.56.44Zm-.51,18.18L0,79.23c.18,8.95,5.31,15.54,11.05,21.51.28-.92.56-1.7.91-2.55,1.83-4.2,4.65-7.28,6.5-11.58a16.81,16.81,0,0,0,1.73-10.46l-.54.13c-1.41,3.07-5.49,5.59-7.81,8.67a8.77,8.77,0,0,0-1.29,2.2ZM24.08,39.38A26.35,26.35,0,0,0,23,30.18a10.82,10.82,0,0,0-3-4.86c-3.92,7.38-3.58,15.8-1.19,23.46a33.68,33.68,0,0,1,4.4-1.91c3.17-1.13,6.53-2.07,9.48-3.77a14.91,14.91,0,0,0,5.84-5.62,44.92,44.92,0,0,0-5.9,0,23.12,23.12,0,0,0-8.55,1.95ZM34.26,26c.09-4.08-.28-9-1.92-13a16.49,16.49,0,0,0-2-3.61h-.22A42.16,42.16,0,0,0,27.2,34.17,11.58,11.58,0,0,0,26.95,36a19.37,19.37,0,0,1,5.65-1.86c.91-.18,1.88-.34,2.85-.56a17,17,0,0,0,6.75-3.26,24.38,24.38,0,0,0,5.19-5.84c.06-.72.35-.72.56-1.22l-5.81,1.17Zm-11,24-6.75,2.23c-.41-5.11-3.14-9.16-5.22-13.66v0l-.12.28c-3.36,8.58-4.46,18.06.41,25.66a4.13,4.13,0,0,0,.28.41c2.2-1.23,4.65-3.11,7-4.43,1.75-1.35,3-2.83,4.42-4.12.44-.38.85-.72,1.29-1.07a29,29,0,0,0,4.68-7.19ZM9.7,132.81a15.75,15.75,0,0,0,2.7,4c3.08,3.33,7.38,5.34,11.9,7.19.44.22.88.35,1.29.53,2.57.47,4.77.88,6.53,2.51-3.67-7.85,5-17.74-1-24.8A4.94,4.94,0,0,0,30,121l-.1.28-5.09,15.07a3.79,3.79,0,0,0-.56-.31c-3.33-1.85-7.51-2.67-11.87-3-.44,0-.88-.06-1.35-.06a1.69,1.69,0,0,0-1.29-.15Zm37.25,44.12a10.88,10.88,0,0,0,6.66,4.68c.69.13,1.35.28,2,.44,4.49.53,9-1.2,13.41-2.36a27.18,27.18,0,0,1,5.81-1c-2.07-4-3.77-8.48-6-12.4-2.38-4.27-5.43-7.94-10.2-10l-.13.06c4.21,4.4,1.6,12.09,5.31,16.64a1.35,1.35,0,0,1,.19.59A48.72,48.72,0,0,0,53.54,176l-1.07.38a29.47,29.47,0,0,1-5.52.5Zm162.38-55c3.33-3.76,4.68-9.23,5.68-14.78a26.47,26.47,0,0,1-7.63,6.53c-1.32.82-2.6,1.7-3.92,2.64-1.54-3-3.39-5.52-5.12-8.29-.94-1.48-1.13-3.14-1.95-4.68l-.22.15c-2.79,7.79-.78,15.86,2.36,23.24a21.48,21.48,0,0,0,9-3.26,15.86,15.86,0,0,0,1.82-1.54Zm-185,27.23c-1-.13-2-.22-3-.35a15.3,15.3,0,0,0,3,4.05A24.14,24.14,0,0,0,34,158.21a59.59,59.59,0,0,0,6.28,1.66,30.94,30.94,0,0,1,3.39.28c1,.13,2,.28,3.07.51-1.72-3.26-2.44-7.16-3.2-11-1.13-5.31-2.45-10.39-6.87-13.7l-.06.19c.31,5.09-2,10-.28,15.14-.76-.26-1.58-.51-2.45-.72a81.74,81.74,0,0,0-9.49-1.42ZM.84,95.75a16.84,16.84,0,0,0,4.62,12.59c2.32,1.88,4.52,4.08,6.69,6.06a36.87,36.87,0,0,0,3.45,3c.47-8.79,9.93-15.55,5.06-25.44h-.31l-8.16,12.87a.46.46,0,0,0-.16-.18c-2.85-2.7-5.4-5.9-9.54-7.63A7.51,7.51,0,0,0,.84,95.75Zm11.34,22.08c-2-1-4.21-1.76-6.41-2.7.53,4.08,2.26,8.47,5.55,11.37a7,7,0,0,1,.94.66c3.49,2.2,7.51,3.23,10.56,6.13a32.51,32.51,0,0,0,1.32-3.21c2.54-6.69,3.8-14.41.72-21.23a6.5,6.5,0,0,1-1-1.35.18.18,0,0,0-.1-.12l-.31-.19-.16.19c-.09,5.37-3.23,10-5.11,14.73a18.86,18.86,0,0,0-6-4.27Zm21.6,46.88a1.61,1.61,0,0,0,.25,1c.76,1.32,2.77,2.38,3.87,3.2a15.7,15.7,0,0,0,5.87,1.85,43.85,43.85,0,0,0,9.74-.34,43.68,43.68,0,0,1,6.66-.26c-2.79-5.37-3.48-12.75-6.87-17.9A12.33,12.33,0,0,0,48.77,148c-1.13-.18-1.57-.84-2.57-.81,3,4.2.82,11,4,15.6a1.57,1.57,0,0,1,0,.94,15.72,15.72,0,0,0-6.5-.18c-3.24.51-6.41,1.42-9.65,1.19a.61.61,0,0,0-.28-.06ZM195,140.47c4.68-2,9.29-3.89,12.59-7.56a16.46,16.46,0,0,0,2.55-3.8,5,5,0,0,0,1-1.35c-1.07.13-2.33.25-3.65.44-3.55.56-7.73,1.47-10.83,3.14l-1.89-5.8-2.7-8.38h-.18c-5.34,7-2.6,16.11-.56,24.18a1.85,1.85,0,0,1,.12.56c1.13-.47,2.36-.94,3.52-1.41Zm-126,43.87a21.7,21.7,0,0,1-5.81,2.45,15.13,15.13,0,0,0,5.88,2.48,21,21,0,0,0,9.08-.15c4.39-1.17,6.56-5,11.11-5,5.12,1.41,10.59,2,15.2,4.17-3.74,2.52-10.36,2.36-13.75,5.62L93,198.16c.06.22.63.35,1.2.56,6.34-2.36,12.77-8.07,19.82-8.48,5.21,2.77,11.27,4.84,16.51,7.51,1.95-1,2.36-3.36,3-5.24v-.79l-13.91-4.17a29.76,29.76,0,0,1,14.32-4c6.06,3.46,13.57,5.37,20.1,3.33a16.53,16.53,0,0,0,4.9-2.41,3.67,3.67,0,0,1,2-1.29,19.43,19.43,0,0,1-6.91-.63c-3.89-1-7.63-2.67-11.65-3.61,2.16-3.71,5.68-8.73,6.41-14.91a1.53,1.53,0,0,0,.59-1.29.41.41,0,0,1-.28-.06c-8.86,2.92-11,12.06-18,17.84-13.72,6.78-29.49,5.62-42.52-1.23-4.33-6-8.64-12.87-16-15.17.76,2.89,2.2,6.91,2.55,10.46,1.38,2,2.26,4.24,4,5.4a1,1,0,0,1-.16.69c-4,.06-6.84,2-9.89,3.67Zm122.44-30.71a18.18,18.18,0,0,0,3.62-3.67c1.66-2.14,3.1-4.28,5.18-5.62l-5.21,1-7.69,1.44-1.89-15.83h-.41a15.08,15.08,0,0,0-4.7,7.57c-1.58,5-1.89,11.09-3.42,16.17-.1.31-.16.63-.28.94H177c1.06.12,2.32.22,3.61.28,3.8.13,8.07-.13,10.89-2.29Zm-23.3,14.53a30.65,30.65,0,0,0,8.88-1.25,35.73,35.73,0,0,0,3.59-1.25,27.4,27.4,0,0,0,8.16-5.15,42.82,42.82,0,0,1-8.22-1.35,30.05,30.05,0,0,0-3.61-.63,16.3,16.3,0,0,0-3.65,0c-.12-4.27.32-10.2,2-14.25a16.77,16.77,0,0,0-7.29,7c-2.73,4.74-4.05,10.74-6.18,16a22.45,22.45,0,0,0,6.34.81ZM154,178.81c4.94,1.37,9.93,2.16,14.36-.66.31-.23.59-.41.88-.63a40.45,40.45,0,0,0,5.43-4.08,13.43,13.43,0,0,1-6.38.4,63.89,63.89,0,0,1-9.74-2.64c1.5-5.18.53-10.8,3.36-15.7l-.19,0a15.56,15.56,0,0,0-7.91,6.79c-2.73,4.37-4.36,9.8-6.72,14.45,2.23.59,4.58,1.35,6.91,2ZM117,84a7.87,7.87,0,0,0,3.76-2.64A6.83,6.83,0,0,0,122,77.34a6.7,6.7,0,0,0-1.2-4.08,6.32,6.32,0,0,0-3.45-2.42,30.47,30.47,0,0,0-8.07-.72h-6.63V84.89h6.63A26,26,0,0,0,117,84Zm4.42,23.48a8.3,8.3,0,0,0,1.76-5.39A8,8,0,0,0,122,97.57a8,8,0,0,0-3.77-2.82,23,23,0,0,0-7.66-.95h-7.85v13.13a18.08,18.08,0,0,0,.23,3.24,1.41,1.41,0,0,0,.72.84,8.31,8.31,0,0,0,2.7.25h4.42a24.09,24.09,0,0,0,6.38-.72,8.13,8.13,0,0,0,4.33-3Zm60.93-17.8a73.26,73.26,0,1,1-73.27-73.3,73.29,73.29,0,0,1,73.27,73.3ZM160.75,61a60,60,0,0,1,5.93,14.2,2.64,2.64,0,0,0,2.55,1.95,1.93,1.93,0,0,0,.69-.12,2.59,2.59,0,0,0,1.82-3.21,64.18,64.18,0,0,0-6.46-15.45A2.62,2.62,0,1,0,160.75,61Zm-21.67-21.5a58.81,58.81,0,0,1,12.24,9.33,2.52,2.52,0,0,0,1.86.78,2.67,2.67,0,0,0,1.85-.78,2.62,2.62,0,0,0,0-3.71,63.63,63.63,0,0,0-13.31-10.18,2.59,2.59,0,0,0-3.58,1,2.63,2.63,0,0,0,1,3.59ZM107,29a2.74,2.74,0,0,0,2.73,2.64,61,61,0,0,1,15.11,1.91,2.38,2.38,0,0,0,.66.1,2.62,2.62,0,0,0,.69-5.15,64.17,64.17,0,0,0-16.46-2.13h-.18A2.57,2.57,0,0,0,107,29ZM76.53,38.66A2.57,2.57,0,0,0,78.79,40a2.81,2.81,0,0,0,1.32-.35A58.69,58.69,0,0,1,94.3,33.7a2.62,2.62,0,1,0-1.35-5.06,63.54,63.54,0,0,0-15.48,6.44,2.59,2.59,0,0,0-.94,3.58ZM55,62.25a2.88,2.88,0,0,0,1.32.35,2.56,2.56,0,0,0,2.26-1.33A60.08,60.08,0,0,1,67.92,49a2.63,2.63,0,0,0,0-3.71,2.56,2.56,0,0,0-3.67,0A64.32,64.32,0,0,0,54,58.63a2.69,2.69,0,0,0,1,3.62ZM48.14,93.33a2.66,2.66,0,0,0,2.6-2.7,58.57,58.57,0,0,1,2-15.14,2.63,2.63,0,0,0-5.09-1.35A64.66,64.66,0,0,0,45.5,90.63v.15a2.56,2.56,0,0,0,2.64,2.55Zm10.56,26.91A59.36,59.36,0,0,1,52.75,106a2.62,2.62,0,1,0-5,1.38,63.56,63.56,0,0,0,6.43,15.48,2.66,2.66,0,0,0,3.59.94,2.64,2.64,0,0,0,1-3.59Zm21.63,21.54a59,59,0,0,1-12.24-9.36,2.65,2.65,0,0,0-3.71,0,2.62,2.62,0,0,0,0,3.71,63.38,63.38,0,0,0,13.28,10.21,2.52,2.52,0,0,0,1.32.34,2.59,2.59,0,0,0,2.26-1.29,2.66,2.66,0,0,0-.94-3.61Zm32.06,10.49a2.65,2.65,0,0,0-2.64-2.64,60.34,60.34,0,0,1-15.23-2,2.61,2.61,0,1,0-1.32,5.06,65.09,65.09,0,0,0,16.54,2.14h.06a2.57,2.57,0,0,0,2.57-2.6ZM113,120.9v10h10.24V120.06a24.72,24.72,0,0,0,4.52-1.25,18.08,18.08,0,0,0,8.23-6.19,15,15,0,0,0,2.89-8.88A14.07,14.07,0,0,0,137,96.44a13.39,13.39,0,0,0-5.15-5.11,27.37,27.37,0,0,0-6.5-2.39,19.4,19.4,0,0,0,6.34-3.39,14.2,14.2,0,0,0,3.71-4.78,12.69,12.69,0,0,0,1.29-5.68,13.06,13.06,0,0,0-2.42-7.57,15.29,15.29,0,0,0-6.94-5.27,19.5,19.5,0,0,0-4.08-1.13V50.41H113v10h-6.6v-10H96.19v10H80.52v8.35H82.9a8.13,8.13,0,0,1,3.24.44,2.44,2.44,0,0,1,1.19,1.19,9.35,9.35,0,0,1,.35,3.39v33.79a9.78,9.78,0,0,1-.35,3.42,2.53,2.53,0,0,1-1.19,1.17,8.33,8.33,0,0,1-3.24.4H80.52v8.35H96.19v10h10.23v-10h5.84a6.31,6.31,0,0,0,.78,0Zm29.83,21.79a2.66,2.66,0,0,0-3.61-1,56.93,56.93,0,0,1-14.19,5.91,2.64,2.64,0,0,0-1.89,3.23,2.67,2.67,0,0,0,2.55,1.95,2.44,2.44,0,0,0,.69-.1,64.79,64.79,0,0,0,15.48-6.43,2.62,2.62,0,0,0,1-3.59Zm21.58-23.51a2.63,2.63,0,0,0-3.58.94,59.44,59.44,0,0,1-9.39,12.21,2.6,2.6,0,0,0,0,3.71,2.52,2.52,0,0,0,1.85.79,2.55,2.55,0,0,0,1.86-.79,63.28,63.28,0,0,0,10.2-13.28,2.61,2.61,0,0,0-.94-3.58ZM174,90.5l-2.64-.12H174a2.52,2.52,0,0,0-2.61-2.48,2.72,2.72,0,0,0-2.64,2.73,58.24,58.24,0,0,1-2,15.29,2.64,2.64,0,0,0,1.86,3.21,3.07,3.07,0,0,0,.69.09,2.61,2.61,0,0,0,2.54-1.95A64.52,64.52,0,0,0,174,90.5Zm0,0"/>
		</g>
	</g>
</svg>